<svg id="svg" xmlns="http://www.w3.org/2000/svg" xmlns:xlink="http://www.w3.org/1999/xlink" width="400" height="400" viewBox="0, 0, 400,400"><g id="svgg"><path id="path0" d="M67.188 41.317 C 38.847 50.480,30.402 84.886,51.296 106.063 C 72.837 127.895,110.700 116.241,116.394 86.026 C 121.808 57.302,94.498 32.487,67.188 41.317 M272.266 141.083 C 247.668 144.576,230.316 154.604,219.582 171.530 L 217.188 175.306 217.188 160.700 L 217.188 146.094 185.156 146.094 L 153.125 146.094 153.125 253.125 L 153.125 360.156 186.684 360.156 L 220.244 360.156 220.495 297.070 C 220.775 227.115,220.649 228.868,226.170 217.973 C 238.397 193.843,277.133 193.080,287.972 216.756 C 292.514 226.675,292.473 225.999,292.762 295.898 L 293.029 360.156 326.636 360.156 L 360.244 360.156 359.923 287.305 C 359.645 224.178,359.430 213.468,358.316 207.071 C 351.487 167.865,334.683 148.713,301.783 142.635 C 295.335 141.443,276.645 140.461,272.266 141.083 M44.531 253.125 L 44.531 360.156 78.125 360.156 L 111.719 360.156 111.719 253.125 L 111.719 146.094 78.125 146.094 L 44.531 146.094 44.531 253.125 " stroke="none" fill="#000000" fill-rule="evenodd"></path></g></svg>