<svg id="svg" xmlns="http://www.w3.org/2000/svg" xmlns:xlink="http://www.w3.org/1999/xlink" width="400" height="400" viewBox="0, 0, 400,400"><g id="svgg"><path id="path0" d="M249.011 70.713 C 214.036 77.354,189.450 112.657,196.040 146.772 L 196.699 150.185 191.123 149.662 C 145.371 145.375,107.678 127.484,74.761 94.430 C 60.443 80.053,62.221 81.090,59.870 85.742 C 46.990 111.230,52.601 141.922,74.009 163.086 L 79.739 168.750 77.104 168.750 C 73.213 168.750,63.478 166.084,57.544 163.394 L 52.344 161.035 52.350 163.916 C 52.403 189.749,71.081 215.489,96.395 224.612 L 103.338 227.114 99.520 227.599 C 90.188 228.785,85.200 228.960,80.469 228.267 C 74.183 227.347,74.444 226.905,77.302 233.620 C 86.527 255.299,110.982 273.438,130.984 273.438 C 135.870 273.438,135.258 274.448,127.148 279.778 C 105.206 294.200,81.880 300.894,53.553 300.897 L 38.747 300.899 42.616 303.308 C 95.824 336.449,169.348 339.671,225.772 311.333 C 286.546 280.810,328.851 210.386,327.270 142.369 L 327.120 135.910 334.717 129.569 C 344.480 121.420,362.335 100.780,359.620 100.781 C 359.271 100.782,355.469 102.039,351.172 103.575 C 343.337 106.376,329.030 110.153,326.250 110.155 C 325.202 110.156,325.776 109.426,328.203 107.673 C 336.443 101.720,345.036 90.733,348.911 81.195 C 351.799 74.089,351.571 73.858,345.117 77.335 C 337.731 81.314,325.640 86.068,316.669 88.521 L 309.510 90.479 307.685 88.526 C 294.712 74.644,269.160 66.887,249.011 70.713 " stroke="none" fill="#000000" fill-rule="evenodd"></path></g></svg>