<svg id="svg" xmlns="http://www.w3.org/2000/svg" xmlns:xlink="http://www.w3.org/1999/xlink" width="400" height="400" viewBox="0, 0, 400,400"><g id="svgg"><path id="path0" d="M89.938 86.028 C 66.726 89.935,47.208 108.296,41.369 131.720 C 39.841 137.850,39.798 140.057,40.013 202.032 L 40.234 266.016 42.435 272.266 C 49.727 292.981,65.122 307.373,85.477 312.505 C 95.141 314.941,304.859 314.941,314.523 312.505 C 334.878 307.373,350.273 292.981,357.565 272.266 L 359.766 266.016 359.987 202.614 C 360.227 134.005,360.223 133.940,355.995 123.471 C 348.886 105.872,334.226 92.766,315.206 87.006 C 309.981 85.424,98.971 84.507,89.938 86.028 M240.575 200.000 C 240.575 200.215,222.130 211.166,199.585 224.336 L 158.594 248.281 158.594 200.000 L 158.594 151.719 199.585 175.664 C 222.130 188.834,240.575 199.785,240.575 200.000 " stroke="none" fill="#000000" fill-rule="evenodd"></path></g></svg>