<svg id="svg" xmlns="http://www.w3.org/2000/svg" xmlns:xlink="http://www.w3.org/1999/xlink" width="400" height="400" viewBox="0, 0, 400,400"><g id="svgg"><path id="path0" d="M227.344 40.655 C 194.876 44.526,172.095 63.940,164.392 94.303 C 161.808 104.489,160.939 115.215,160.938 136.914 L 160.938 155.469 139.027 155.469 L 117.116 155.469 115.172 157.414 L 113.227 159.358 113.449 188.636 C 113.654 215.517,113.786 218.029,115.066 219.309 C 116.327 220.570,118.579 220.725,138.682 220.933 L 160.904 221.162 161.116 288.774 L 161.328 356.386 163.520 358.271 L 165.712 360.156 194.929 360.156 C 226.535 360.156,227.467 360.043,228.867 356.026 C 229.415 354.454,229.688 331.672,229.688 287.432 L 229.688 221.192 254.883 220.929 C 268.740 220.784,280.703 220.369,281.467 220.007 C 284.527 218.554,284.758 216.756,285.027 192.188 C 285.336 163.976,284.977 159.124,282.383 156.531 L 280.540 154.688 255.068 154.688 L 229.596 154.687 229.837 133.398 C 230.191 102.163,229.335 103.002,261.328 102.511 C 288.970 102.087,286.710 104.884,286.710 71.094 C 286.710 44.888,286.385 42.621,282.393 40.953 C 279.443 39.721,237.104 39.491,227.344 40.655 " stroke="none" fill="#000000" fill-rule="evenodd"></path></g></svg>